 0 
SECTION
 2 
ENTITIES
 0 
LINE
 8 
Layer
 10 
-374.3726 
 20 
 443.9544 
 11 
-398.0988 
 21 
 446.692 
 0 
LINE
 8 
Layer
 10 
-398.0988 
 20 
 446.692 
 11 
-419.0875 
 21 
 447.6046 
 0 
LINE
 8 
Layer
 10 
-419.0875 
 20 
 447.6046 
 11 
-459.6958 
 21 
 447.6046 
 0 
LINE
 8 
Layer
 10 
-459.6958 
 20 
 447.6046 
 11 
-482.0532 
 21 
 446.692 
 0 
LINE
 8 
Layer
 10 
-482.0532 
 20 
 446.692 
 11 
-503.0418 
 21 
 442.5855 
 0 
LINE
 8 
Layer
 10 
-503.0418 
 20 
 442.5855 
 11 
-521.2928 
 21 
 438.0228 
 0 
LINE
 8 
Layer
 10 
-521.2928 
 20 
 438.0228 
 11 
-529.0494 
 21 
 419.3156 
 0 
LINE
 8 
Layer
 10 
-529.0494 
 20 
 419.3156 
 11 
-534.981 
 21 
 321.673 
 0 
LINE
 8 
Layer
 10 
-534.981 
 20 
 321.673 
 11 
-540 
 21 
 279.2395 
 0 
LINE
 8 
Layer
 10 
-540 
 20 
 279.2395 
 11 
-540 
 21 
 259.6198 
 0 
LINE
 8 
Layer
 10 
-540 
 20 
 259.6198 
 11 
-524.0304 
 21 
 248.6692 
 0 
LINE
 8 
Layer
 10 
-524.0304 
 20 
 248.6692 
 11 
-505.3232 
 21 
 247.3004 
 0 
LINE
 8 
Layer
 10 
-505.3232 
 20 
 247.3004 
 11 
-487.0722 
 21 
 249.5817 
 0 
LINE
 8 
Layer
 10 
-487.0722 
 20 
 249.5817 
 11 
-447.3764 
 21 
 252.3194 
 0 
LINE
 8 
Layer
 10 
-447.3764 
 20 
 252.3194 
 11 
-428.6692 
 21 
 252.3194 
 0 
LINE
 8 
Layer
 10 
-428.6692 
 20 
 252.3194 
 11 
-384.4106 
 21 
 247.3004 
 0 
LINE
 8 
Layer
 10 
-384.4106 
 20 
 247.3004 
 11 
-365.7034 
 21 
 245.9315 
 0 
LINE
 8 
Layer
 10 
-365.7034 
 20 
 245.9315 
 11 
-351.1027 
 21 
 261.9011 
 0 
LINE
 8 
Layer
 10 
-351.1027 
 20 
 261.9011 
 11 
-349.7338 
 21 
 283.346 
 0 
LINE
 8 
Layer
 10 
-349.7338 
 20 
 283.346 
 11 
-349.7338 
 21 
 306.616 
 0 
LINE
 8 
Layer
 10 
-349.7338 
 20 
 306.616 
 11 
-347.4525 
 21 
 351.3308 
 0 
LINE
 8 
Layer
 10 
-347.4525 
 20 
 351.3308 
 11 
-348.365 
 21 
 372.3194 
 0 
LINE
 8 
Layer
 10 
-348.365 
 20 
 372.3194 
 11 
-348.365 
 21 
 393.308 
 0 
LINE
 8 
Layer
 10 
-348.365 
 20 
 393.308 
 11 
-347.4525 
 21 
 412.0152 
 0 
LINE
 8 
Layer
 10 
-347.4525 
 20 
 412.0152 
 11 
-349.7338 
 21 
 430.2661 
 0 
LINE
 8 
Layer
 10 
-349.7338 
 20 
 430.2661 
 11 
-353.384 
 21 
 433.0038 
 0 
LINE
 8 
Layer
 10 
-93.7643 
 20 
 433.9164 
 11 
-113.8403 
 21 
 442.5855 
 0 
LINE
 8 
Layer
 10 
-113.8403 
 20 
 442.5855 
 11 
-137.1103 
 21 
 445.3232 
 0 
LINE
 8 
Layer
 10 
-137.1103 
 20 
 445.3232 
 11 
-164.4867 
 21 
 443.9544 
 0 
LINE
 8 
Layer
 10 
-164.4867 
 20 
 443.9544 
 11 
-186.3878 
 21 
 441.673 
 0 
LINE
 8 
Layer
 10 
-186.3878 
 20 
 441.673 
 11 
-205.0951 
 21 
 438.9354 
 0 
LINE
 8 
Layer
 10 
-205.0951 
 20 
 438.9354 
 11 
-222.4335 
 21 
 426.616 
 0 
LINE
 8 
Layer
 10 
-222.4335 
 20 
 426.616 
 11 
-228.8213 
 21 
 407.9088 
 0 
LINE
 8 
Layer
 10 
-228.8213 
 20 
 407.9088 
 11 
-231.1027 
 21 
 386.0076 
 0 
LINE
 8 
Layer
 10 
-231.1027 
 20 
 386.0076 
 11 
-231.1027 
 21 
 343.5741 
 0 
LINE
 8 
Layer
 10 
-231.1027 
 20 
 343.5741 
 11 
-228.8213 
 21 
 318.9354 
 0 
LINE
 8 
Layer
 10 
-228.8213 
 20 
 318.9354 
 11 
-221.0646 
 21 
 271.9391 
 0 
LINE
 8 
Layer
 10 
-221.0646 
 20 
 271.9391 
 11 
-218.7833 
 21 
 252.3194 
 0 
LINE
 8 
Layer
 10 
-218.7833 
 20 
 252.3194 
 11 
-208.7453 
 21 
 236.3498 
 0 
LINE
 8 
Layer
 10 
-208.7453 
 20 
 236.3498 
 11 
-194.1445 
 21 
 224.943 
 0 
LINE
 8 
Layer
 10 
-194.1445 
 20 
 224.943 
 11 
-176.8061 
 21 
 217.6426 
 0 
LINE
 8 
Layer
 10 
-176.8061 
 20 
 217.6426 
 11 
-156.73 
 21 
 212.6236 
 0 
LINE
 8 
Layer
 10 
-156.73 
 20 
 212.6236 
 11 
-112.4715 
 21 
 207.6046 
 0 
LINE
 8 
Layer
 10 
-112.4715 
 20 
 207.6046 
 11 
-92.8517 
 21 
 207.6046 
 0 
LINE
 8 
Layer
 10 
-92.8517 
 20 
 207.6046 
 11 
-70.4943 
 21 
 206.2357 
 0 
LINE
 8 
Layer
 10 
-70.4943 
 20 
 206.2357 
 11 
-50.8745 
 21 
 206.2357 
 0 
LINE
 8 
Layer
 10 
-50.8745 
 20 
 206.2357 
 11 
-30.7985 
 21 
 210.3422 
 0 
LINE
 8 
Layer
 10 
-30.7985 
 20 
 210.3422 
 11 
-23.4981 
 21 
 229.962 
 0 
LINE
 8 
Layer
 10 
-23.4981 
 20 
 229.962 
 11 
-13.4601 
 21 
 339.0114 
 0 
LINE
 8 
Layer
 10 
-13.4601 
 20 
 339.0114 
 11 
-13.4601 
 21 
 379.6198 
 0 
LINE
 8 
Layer
 10 
-13.4601 
 20 
 379.6198 
 11 
-16.1977 
 21 
 400.6084 
 0 
LINE
 8 
Layer
 10 
-16.1977 
 20 
 400.6084 
 11 
-23.4981 
 21 
 417.9468 
 0 
LINE
 8 
Layer
 10 
-23.4981 
 20 
 417.9468 
 11 
-43.1179 
 21 
 422.9658 
 0 
LINE
 8 
Layer
 10 
-43.1179 
 20 
 422.9658 
 11 
-80.5323 
 21 
 430.2661 
 0 
LINE
 8 
Layer
 10 
-80.5323 
 20 
 430.2661 
 11 
-90.1141 
 21 
 431.635 
 0 
LINE
 8 
Layer
 10 
 254.3726 
 20 
 452.6236 
 11 
 231.1027 
 21 
 452.6236 
 0 
LINE
 8 
Layer
 10 
 231.1027 
 20 
 452.6236 
 11 
 210.1141 
 21 
 451.2548 
 0 
LINE
 8 
Layer
 10 
 210.1141 
 20 
 451.2548 
 11 
 189.1255 
 21 
 448.9734 
 0 
LINE
 8 
Layer
 10 
 189.1255 
 20 
 448.9734 
 11 
 169.5057 
 21 
 445.3232 
 0 
LINE
 8 
Layer
 10 
 169.5057 
 20 
 445.3232 
 11 
 149.4297 
 21 
 442.5855 
 0 
LINE
 8 
Layer
 10 
 149.4297 
 20 
 442.5855 
 11 
 134.8289 
 21 
 430.2661 
 0 
LINE
 8 
Layer
 10 
 134.8289 
 20 
 430.2661 
 11 
 133.4601 
 21 
 412.0152 
 0 
LINE
 8 
Layer
 10 
 133.4601 
 20 
 412.0152 
 11 
 138.4791 
 21 
 318.9354 
 0 
LINE
 8 
Layer
 10 
 138.4791 
 20 
 318.9354 
 11 
 138.4791 
 21 
 295.6654 
 0 
LINE
 8 
Layer
 10 
 138.4791 
 20 
 295.6654 
 11 
 139.8479 
 21 
 276.9582 
 0 
LINE
 8 
Layer
 10 
 139.8479 
 20 
 276.9582 
 11 
 139.8479 
 21 
 258.2509 
 0 
LINE
 8 
Layer
 10 
 139.8479 
 20 
 258.2509 
 11 
 142.1293 
 21 
 240 
 0 
LINE
 8 
Layer
 10 
 142.1293 
 20 
 240 
 11 
 159.4677 
 21 
 223.5741 
 0 
LINE
 8 
Layer
 10 
 159.4677 
 20 
 223.5741 
 11 
 181.8251 
 21 
 217.6426 
 0 
LINE
 8 
Layer
 10 
 181.8251 
 20 
 217.6426 
 11 
 203.7262 
 21 
 214.9049 
 0 
LINE
 8 
Layer
 10 
 203.7262 
 20 
 214.9049 
 11 
 222.4335 
 21 
 214.9049 
 0 
LINE
 8 
Layer
 10 
 222.4335 
 20 
 214.9049 
 11 
 291.7871 
 21 
 222.6616 
 0 
LINE
 8 
Layer
 10 
 291.7871 
 20 
 222.6616 
 11 
 307.7567 
 21 
 234.981 
 0 
LINE
 8 
Layer
 10 
 307.7567 
 20 
 234.981 
 11 
 310.038 
 21 
 254.6008 
 0 
LINE
 8 
Layer
 10 
 310.038 
 20 
 254.6008 
 11 
 311.4068 
 21 
 278.327 
 0 
LINE
 8 
Layer
 10 
 311.4068 
 20 
 278.327 
 11 
 317.7947 
 21 
 333.9924 
 0 
LINE
 8 
Layer
 10 
 317.7947 
 20 
 333.9924 
 11 
 315.057 
 21 
 373.6882 
 0 
LINE
 8 
Layer
 10 
 315.057 
 20 
 373.6882 
 11 
 312.7757 
 21 
 391.9391 
 0 
LINE
 8 
Layer
 10 
 312.7757 
 20 
 391.9391 
 11 
 305.019 
 21 
 412.9277 
 0 
LINE
 8 
Layer
 10 
 305.019 
 20 
 412.9277 
 11 
 297.7186 
 21 
 430.2661 
 0 
LINE
 8 
Layer
 10 
 297.7186 
 20 
 430.2661 
 11 
 284.0304 
 21 
 445.3232 
 0 
LINE
 8 
Layer
 10 
 284.0304 
 20 
 445.3232 
 11 
 275.3612 
 21 
 450.3422 
 0 
LINE
 8 
Layer
 10 
 515.3612 
 20 
 453.9924 
 11 
 490.7224 
 21 
 459.0114 
 0 
LINE
 8 
Layer
 10 
 490.7224 
 20 
 459.0114 
 11 
 468.365 
 21 
 461.2928 
 0 
LINE
 8 
Layer
 10 
 468.365 
 20 
 461.2928 
 11 
 448.7452 
 21 
 459.924 
 0 
LINE
 8 
Layer
 10 
 448.7452 
 20 
 459.924 
 11 
 430.038 
 21 
 452.6236 
 0 
LINE
 8 
Layer
 10 
 430.038 
 20 
 452.6236 
 11 
 419.0875 
 21 
 429.3536 
 0 
LINE
 8 
Layer
 10 
 419.0875 
 20 
 429.3536 
 11 
 415.4373 
 21 
 403.346 
 0 
LINE
 8 
Layer
 10 
 415.4373 
 20 
 403.346 
 11 
 411.3308 
 21 
 354.981 
 0 
LINE
 8 
Layer
 10 
 411.3308 
 20 
 354.981 
 11 
 407.6806 
 21 
 292.9277 
 0 
LINE
 8 
Layer
 10 
 407.6806 
 20 
 292.9277 
 11 
 407.6806 
 21 
 269.6578 
 0 
LINE
 8 
Layer
 10 
 407.6806 
 20 
 269.6578 
 11 
 414.0685 
 21 
 249.5817 
 0 
LINE
 8 
Layer
 10 
 414.0685 
 20 
 249.5817 
 11 
 426.3878 
 21 
 234.981 
 0 
LINE
 8 
Layer
 10 
 426.3878 
 20 
 234.981 
 11 
 445.0951 
 21 
 229.962 
 0 
LINE
 8 
Layer
 10 
 445.0951 
 20 
 229.962 
 11 
 466.9962 
 21 
 227.6806 
 0 
LINE
 8 
Layer
 10 
 466.9962 
 20 
 227.6806 
 11 
 485.7034 
 21 
 229.962 
 0 
LINE
 8 
Layer
 10 
 485.7034 
 20 
 229.962 
 11 
 504.4106 
 21 
 233.6122 
 0 
LINE
 8 
Layer
 10 
 504.4106 
 20 
 233.6122 
 11 
 524.0304 
 21 
 240 
 0 
LINE
 8 
Layer
 10 
 524.0304 
 20 
 240 
 11 
 531.3308 
 21 
 258.2509 
 0 
LINE
 8 
Layer
 10 
 531.3308 
 20 
 258.2509 
 11 
 529.962 
 21 
 279.2395 
 0 
LINE
 8 
Layer
 10 
 529.962 
 20 
 279.2395 
 11 
 529.962 
 21 
 304.3346 
 0 
LINE
 8 
Layer
 10 
 529.962 
 20 
 304.3346 
 11 
 531.3308 
 21 
 328.9734 
 0 
LINE
 8 
Layer
 10 
 531.3308 
 20 
 328.9734 
 11 
 534.981 
 21 
 347.6806 
 0 
LINE
 8 
Layer
 10 
 534.981 
 20 
 347.6806 
 11 
 537.7186 
 21 
 365.9315 
 0 
LINE
 8 
Layer
 10 
 537.7186 
 20 
 365.9315 
 11 
 540 
 21 
 388.289 
 0 
LINE
 8 
Layer
 10 
 540 
 20 
 388.289 
 11 
 537.7186 
 21 
 406.9962 
 0 
LINE
 8 
Layer
 10 
 537.7186 
 20 
 406.9962 
 11 
 531.3308 
 21 
 438.0228 
 0 
ENDSEC
 0 
EOF
